<?xml version="1.0" encoding="utf-8"?>
<!-- Generator: Adobe Illustrator 19.0.0, SVG Export Plug-In . SVG Version: 6.00 Build 0)  -->
<svg version="1.1" id="Layer_1" xmlns="http://www.w3.org/2000/svg" xmlns:xlink="http://www.w3.org/1999/xlink" x="0px" y="0px"
	 viewBox="0 0 500 500" style="enable-background:new 0 0 500 500;" xml:space="preserve">
<style type="text/css">
	.st0{fill:#E4E4E5;}
	.st1{fill:#E4312C;}
	.st2{fill:#FFFFFF;}
</style>
<g id="XMLID_1_">
	<path id="XMLID_20_" class="st0" d="M209.1,161l-7.5-7.5c-7.5-7.5-16.4-7.6-24.8,0.8l-6,6c-8.4,8.4-8.2,17.3-0.8,24.8l7.5,7.5
		c7.5,7.5,16.4,7.6,24.8-0.8l6-6C216.7,177.5,216.5,168.5,209.1,161 M171.4,198.7l-7.5-7.5c-7.5-7.5-16.4-7.6-24.8,0.8l-6,6
		c-8.4,8.4-8.2,17.3-0.8,24.8l24.1,24.1c2.8,2.8,5.9,2.4,8.1,0.2c2.1-2.1,2.5-5.2-0.3-8l-5.6-5.5c1.5-0.3,3.4-1.5,5.6-3.7l6.4-6.4
		C179,215.2,178.8,206.2,171.4,198.7 M141.5,245.6l-16-16c-7.5-7.5-16.4-7.6-24.8,0.8l-6,6c-8.4,8.4-8.2,17.3-0.8,24.8l16,16
		c2.8,2.8,5.9,2.4,8.1,0.2c2.1-2.2,2.5-5.3-0.3-8l-15.8-15.8c-3-3-2.9-5.8,0.5-9.2l6.3-6.3c3.4-3.4,6.2-3.5,9.2-0.5l15.8,15.8
		c2.8,2.8,5.9,2.4,8,0.3C143.8,251.5,144.3,248.3,141.5,245.6 M304.6,265.7l-99.1,99.1c-10,10-21.4,10-31.4,0L75,265.7
		c-10-10-10-21.4,0-31.4l99.1-99.1c10-10,21.4-10,31.4,0l99.1,99.1C314.5,244.3,314.5,255.7,304.6,265.7 M193.9,161.4
		c-3-3-5.8-2.9-9.2,0.5l-6.3,6.3c-3.4,3.4-3.5,6.2-0.4,9.2l7.2,7.2c3,3,5.8,2.9,9.2-0.5l6.3-6.3c3.4-3.4,3.5-6.2,0.5-9.2
		L193.9,161.4z M163.5,206.4c3,3,2.9,5.8-0.5,9.2l-6.3,6.3c-3.4,3.4-6.2,3.5-9.2,0.5l-7.2-7.2c-3-3-2.9-5.8,0.4-9.2l6.3-6.3
		c3.4-3.4,6.2-3.5,9.2-0.5L163.5,206.4z"/>
	<path id="XMLID_26_" class="st1" d="M163.5,206.4l-7.2-7.2c-3-3-5.8-2.9-9.2,0.5l-6.3,6.3c-3.4,3.4-3.5,6.2-0.4,9.2l7.2,7.2
		c3,3,5.8,2.9,9.2-0.5l6.3-6.3C166.4,212.2,166.5,209.4,163.5,206.4 M171.4,198.7c7.5,7.5,7.6,16.4-0.8,24.8l-6.4,6.4
		c-2.2,2.2-4,3.3-5.6,3.7l5.6,5.5c2.8,2.8,2.4,5.9,0.3,8c-2.1,2.1-5.3,2.5-8.1-0.2l-24.1-24.1c-7.5-7.5-7.6-16.4,0.8-24.8l6-6
		c8.4-8.4,17.3-8.2,24.8-0.8L171.4,198.7z M201.1,168.7l-7.2-7.2c-3-3-5.8-2.9-9.2,0.5l-6.3,6.3c-3.4,3.4-3.5,6.2-0.4,9.2l7.2,7.2
		c3,3,5.8,2.9,9.2-0.5l6.3-6.3C204,174.5,204.1,171.7,201.1,168.7 M209.1,161c7.5,7.5,7.6,16.4-0.8,24.8l-6,6
		c-8.4,8.4-17.3,8.2-24.8,0.8l-7.5-7.5c-7.5-7.5-7.6-16.4,0.8-24.8l6-6c8.4-8.4,17.3-8.2,24.8-0.8L209.1,161z M141.5,245.5
		c2.8,2.8,2.4,5.9,0.2,8.1c-2.1,2.1-5.2,2.5-8-0.3l-15.8-15.8c-3-3-5.8-2.9-9.2,0.5l-6.3,6.3c-3.4,3.4-3.5,6.2-0.5,9.2l15.8,15.8
		c2.8,2.8,2.4,5.9,0.3,8c-2.1,2.1-5.3,2.5-8.1-0.2l-16-16c-7.5-7.5-7.6-16.4,0.8-24.8l6-6c8.4-8.4,17.3-8.2,24.8-0.8L141.5,245.5z"
		/>
	<path id="XMLID_27_" class="st1" d="M195.5,234.3c-10,10-10,21.4,0,31.4l99.1,99.1c10,10,21.4,10,31.4,0l99.1-99.1
		c10-10,10-21.4,0-31.4l-99.1-99.1c-10-10-21.4-10-31.4,0L195.5,234.3z"/>
	<path id="XMLID_28_" class="st2" d="M326.6,205c0-11.7-7.3-17.5-16.4-17.5c-9,0-16.4,5.8-16.4,17.5V295c0,11.7,7.3,17.5,16.4,17.5
		c9,0,16.4-5.8,16.4-17.5V205z"/>
</g>
</svg>
