<?xml version="1.0" encoding="UTF-8"?>
<svg data-bbox="5.022 5.022 465.078 311.765" height="321.785" width="475.099" xmlns:xlink="http://www.w3.org/1999/xlink" xmlns="http://www.w3.org/2000/svg" data-type="color">
    <g>
        <defs>
            <path id="1132b4e5-8f26-462d-97b6-9b7d3e7d4cb0" d="M0 0h226.484l.176 226.719H.18" fill="#000000" data-color="1"/>
            <clipPath id="628123ad-7fe3-4aa4-a8ca-85f5186d2a55">
                <use overflow="visible" xlink:href="#1132b4e5-8f26-462d-97b6-9b7d3e7d4cb0" width="1" height="1"/>
            </clipPath>
        </defs>
        <path fill="#e5e7e4" d="M309.303 178.604L178.604 309.303c-9.81 9.81-25.715 9.81-35.525 0l-130.7-130.699c-9.81-9.81-9.81-25.715 0-35.525l130.7-130.7c9.81-9.81 25.715-9.81 35.525 0l130.699 130.7c9.81 9.81 9.81 25.715 0 35.525z" data-color="2"/>
        <path transform="translate(150.809 -1.75) scale(1.45399)" d="M10.078 99.156L99.25 9.98c7.035-7.031 18.465-7.031 25.531 0l89.508 89.176c7.059 7.035 7.078 18.438.047 25.48l-89.18 89.168c-7.027 7.031-18.457 7.031-25.516 0l-89.512-89.168c-7.066-7.042-7.085-18.445-.05-25.48" clip-path="url(#628123ad-7fe3-4aa4-a8ca-85f5186d2a55)" fill="#023576" data-color="3"/>
        <path d="M349.196 89.597c-3.157 0-5.31-2.08-5.31-5.165 0-3.086 2.153-5.166 5.31-5.166 3.157 0 5.31 2.08 5.31 5.166 0 3.085-2.153 5.165-5.31 5.165zm-89.693 8.681l-.145.717c-.432 2.01-1.006 2.87-2.724 2.87-1.008 0-2.8-.288-4.81-.288-1.723 0-4.233.217-5.812.718v25.468c0 2.225-.93 3.159-3.154 3.159h-2.298c-2.223 0-3.156-.934-3.156-3.159V99.424c0-2.15.933-3.369 3.013-3.944a42.742 42.742 0 0111.337-1.58c1.647 0 3.44.072 5.163.29 1.797.214 2.73 1.217 2.73 2.724 0 .287-.075 1.004-.144 1.364zm55.557 158.45c-8.025 0-14.555-5.164-14.555-15.603v-80.057c0-10.44 6.53-15.602 14.559-15.602 8.036 0 14.573 5.16 14.573 15.602l.004 80.062c0 10.437-6.54 15.597-14.58 15.597zm38.437-128.965c0 2.225-.929 3.159-3.153 3.159h-2.296c-2.225 0-3.157-.934-3.157-3.159V97.775c0-2.224.932-3.157 3.157-3.157h2.296c2.224 0 3.153.933 3.153 3.157zm26.91-33.856c-10.904 0-18 6.607-18 18.875 0 12.34 7.096 18.843 18 18.843 10.906 0 18-6.503 18-18.843 0-12.268-7.094-18.875-18-18.875zm0 7.375c5.955 0 9.25 4.18 9.25 11.5 0 7.389-3.295 11.468-9.25 11.468-5.953 0-9.25-4.08-9.25-11.468 0-7.32 3.297-11.5 9.25-11.5zm-50.22-21.313c-2.224 0-3.156.933-3.156 3.156v11.563c-1.435-.43-3.538-.781-6.125-.781-11.477 0-18.5 7.233-18.5 19 0 11.549 6.74 18.718 19.656 18.718 3.373 0 8.257-.492 10.625-1.28 1.79-.575 2.938-1.506 2.938-3.876V83.125c0-2.223-.932-3.156-3.156-3.156zm-8.25 21.406c1.794 0 3.802.287 5.094.72v21.5c-1.292.428-3.3.718-5.094.718-7.534 0-10.78-4.582-10.78-11.469 0-6.888 3.246-11.469 10.78-11.469zm-42.187-7.468c-4.015 0-8.9.704-11.344 1.78-1 .43-2 1.169-2 2.532 0 .43.062.926.281 1.5l.282.719c.65 1.578 1.289 2.219 2.437 2.219.502 0 1.073-.16 1.719-.375 2.08-.647 4.317-1.282 7.187-1.282 5.812 0 8.032 2.584 8.032 7.032v1.093c-1.436-.358-4.091-.937-7.75-.937-9.257 0-15.5 3.652-15.5 11.687 0 7.964 6.088 11.75 16.062 11.75 4.09 0 10.19-.646 12.625-1.218 1.798-.432 3.094-1.138 3.094-3.72v-17.874c0-10.546-5.08-14.906-15.125-14.906zm.406 20.593c2.296 0 4.537.28 6.188.782v9.25c-1.65.503-3.95.718-6.032.718-5.88 0-8.53-1.65-8.53-5.312 0-3.73 2.706-5.438 8.374-5.438z" fill="#ffffff" data-color="4"/>
        <path d="M175.272 68.836l-8.073 8.078c-4.312 4.306-7.9 4.426-11.74.583l-9.222-9.244c-3.848-3.819-3.722-7.43.568-11.719l8.075-8.078c4.297-4.306 7.897-4.421 11.74-.588l9.231 9.245c3.827 3.818 3.701 7.439-.58 11.723zm10.687-21.49l-9.6-9.576c-9.506-9.532-20.961-9.7-31.644.988l-7.602 7.615c-10.694 10.685-10.517 22.116-1.008 31.648l9.6 9.572c9.519 9.552 20.966 9.719 31.646-.965l7.605-7.623c10.695-10.684 10.521-22.124 1.003-31.658m-48.091 48.091l-9.61-9.569c-9.518-9.53-20.955-9.707-31.635.988l-7.614 7.615c-10.69 10.678-10.523 22.106-1.002 31.648l30.792 30.771c3.557 3.54 7.558 3.021 10.291.292 2.73-2.732 3.193-6.665-.352-10.226l-7.087-7.066c1.928-.406 4.302-1.878 7.09-4.659l8.123-8.138c10.703-10.68 10.519-22.115 1.004-31.656zm-10.113 9.774c3.83 3.825 3.71 7.44-.59 11.72l-8.07 8.08c-4.313 4.302-7.887 4.42-11.729.577l-9.239-9.242c-3.83-3.821-3.722-7.432.573-11.72l8.064-8.078c4.32-4.307 7.912-4.41 11.755-.584l9.236 9.247m-28.057 49.997l-20.39-20.38c-9.53-9.528-20.955-9.706-31.65.983l-7.616 7.6c-10.686 10.688-10.52 22.133-.985 31.663l20.378 20.4c3.566 3.552 7.554 3.021 10.291.304 2.722-2.745 3.196-6.705-.368-10.238l-20.202-20.225c-3.83-3.82-3.716-7.427.59-11.725l8.077-8.07c4.287-4.304 7.903-4.43 11.73-.585l20.208 20.202c3.538 3.56 7.494 3.083 10.228.358 2.738-2.74 3.261-6.731-.29-10.287" fill="#023576" data-color="3"/>
    </g>
</svg>
