<?xml version="1.0" encoding="UTF-8"?>
<svg data-bbox="0 -0.336 310.649 66.189" viewBox="0 0 310.648 72.998" height="72.998" width="310.648" xmlns="http://www.w3.org/2000/svg" data-type="ugc">
    <g>
        <path d="M179.333 55.083a4.416 4.416 0 01-1.683-1.701c-.408-.726-.612-1.545-.612-2.457 0-.911.204-1.73.612-2.457a4.409 4.409 0 011.683-1.701c.714-.407 1.515-.611 2.403-.611.888 0 1.689.204 2.402.611a4.418 4.418 0 011.684 1.701c.408.727.611 1.546.611 2.457 0 .912-.203 1.731-.611 2.457a4.398 4.398 0 01-1.684 1.701c-.713.408-1.515.612-2.402.612-.888 0-1.689-.204-2.403-.612zm4.339-.703a3.626 3.626 0 001.35-1.404c.33-.6.494-1.283.494-2.052 0-.768-.164-1.451-.494-2.052-.33-.6-.78-1.068-1.35-1.404-.57-.336-1.216-.504-1.936-.504-.721 0-1.365.168-1.936.504s-1.02.805-1.35 1.404c-.33.601-.495 1.284-.495 2.052 0 .769.165 1.452.495 2.052.33.601.779 1.068 1.35 1.404s1.215.504 1.936.504c.72 0 1.366-.168 1.936-.504z" fill="#2A3B45"/>
        <path d="M197.691 47.18c.684.685 1.025 1.669 1.025 2.952v5.49h-.899v-5.418c0-1.056-.267-1.86-.802-2.412-.533-.552-1.28-.828-2.24-.828-1.104 0-1.975.33-2.609.99-.637.66-.955 1.548-.955 2.664v5.004h-.899v-9.396h.864v2.034a3.58 3.58 0 011.449-1.548c.641-.372 1.4-.558 2.276-.558 1.176.001 2.107.343 2.79 1.026z" fill="#2A3B45"/>
        <path d="M203.316 42.266h.9v13.356h-.9V42.266z" fill="#2A3B45"/>
        <path d="M208.811 43.734a.683.683 0 01-.215-.514c0-.203.071-.378.215-.521.145-.145.318-.216.522-.216s.378.068.522.207c.144.138.216.309.216.513s-.072.378-.216.521c-.145.145-.318.217-.522.217s-.378-.069-.522-.207zm.072 2.492h.9v9.396h-.9v-9.396z" fill="#2A3B45"/>
        <path d="M221.84 47.18c.684.685 1.025 1.669 1.025 2.952v5.49h-.9v-5.418c0-1.056-.267-1.86-.801-2.412-.533-.552-1.281-.828-2.24-.828-1.105 0-1.975.33-2.61.99s-.954 1.548-.954 2.664v5.004h-.9v-9.396h.864v2.034c.324-.659.808-1.176 1.449-1.548s1.401-.558 2.276-.558c1.176.001 2.106.343 2.791 1.026z" fill="#2A3B45"/>
        <path d="M235.609 51.14h-8.082c.023.732.209 1.384.558 1.953a3.57 3.57 0 001.413 1.323c.594.313 1.264.468 2.008.468.611 0 1.178-.11 1.7-.333a3.33 3.33 0 001.306-.98l.521.594a4.01 4.01 0 01-1.539 1.134 5.038 5.038 0 01-2.007.396c-.937 0-1.771-.204-2.502-.612a4.44 4.44 0 01-1.72-1.692c-.414-.72-.621-1.541-.621-2.466 0-.911.195-1.73.586-2.457a4.315 4.315 0 011.611-1.701c.684-.407 1.451-.611 2.303-.611.853 0 1.617.201 2.295.603a4.277 4.277 0 011.603 1.684c.39.72.585 1.536.585 2.447l-.018.25zm-6.246-3.753a3.385 3.385 0 00-1.27 1.242 4.05 4.05 0 00-.549 1.81h7.2a3.776 3.776 0 00-.54-1.801 3.53 3.53 0 00-1.277-1.241c-.529-.3-1.123-.45-1.783-.45s-1.253.146-1.781.44z" fill="#2A3B45"/>
        <path d="M28.851 0v7.249H18.77v26.402H9.985V7.249H0V0h28.851z" fill="#353F49"/>
        <path d="M55.01 33.651l-4.896-9.313h-6.529v9.313H34.8V0h15.122c8.929 0 14.017 4.321 14.017 11.81 0 5.088-2.112 8.833-6 10.849l7.009 10.993H55.01zM43.585 17.33h6.385c3.552 0 5.617-1.824 5.617-5.232 0-3.313-2.064-5.089-5.617-5.089h-6.385V17.33z" fill="#353F49"/>
        <path d="M86.881-.336c9.649 0 15.698 5.713 15.698 14.546v19.441h-8.785V25.73H80.161v7.921h-8.785V14.21c0-8.833 6.001-14.546 15.505-14.546zm.097 7.489c-4.224 0-6.816 2.736-6.816 7.057v4.8h13.633v-4.8c-.001-4.32-2.641-7.057-6.817-7.057z" fill="#353F49"/>
        <path d="M119.088 38.835c-4.8 0-8.688-1.969-11.665-5.425l4.033-6c2.448 2.544 5.088 3.792 7.057 3.792 2.16 0 3.552-1.344 3.552-3.889V7.249h-11.569V0h20.354v27.506c0 7.201-4.513 11.329-11.762 11.329z" fill="#353F49"/>
        <path d="M165.985 0v7.009h-17.762v6.289h16.034v6.96l-16.034.049v6.335h18.242v7.009h-27.027V0h26.547z" fill="#353F49"/>
        <path d="M229.816 0v7.249h-10.081v26.402h-8.784V7.249h-9.985V0h28.85z" fill="#353F49"/>
        <path d="M251.359 26.546c3.889 0 6.576-2.641 6.576-7.008V0h8.785v19.538c0 8.88-5.952 14.497-15.409 14.497-9.505 0-15.602-5.616-15.602-14.497V0h8.785v19.538c.001 4.32 2.881 7.008 6.865 7.008z" fill="#353F49"/>
        <path d="M283.19 0l8.929 19.634L301.048 0h9.601v33.651h-7.776l-.048-21.313L295 30.291h-5.761l-7.825-17.953v21.313h-7.824V0h9.6z" fill="#353F49"/>
        <path d="M189.744 26.21c-5.185 0-9.121-4.128-9.121-9.552 0-5.377 3.937-9.457 9.121-9.457h4.484V-.24h-4.629c-10.272 0-18.001 7.296-18.001 16.993 0 9.888 7.536 17.281 17.665 17.281 4.993 0 10.369-2.448 13.97-6.24l-5.137-5.52c-2.352 2.4-5.568 3.936-8.352 3.936z" fill="#353F49"/>
        <path stroke-miterlimit="10" stroke-width="8.8" stroke="#F8CC00" fill="none" d="M9.991 50.691h29.165v15.162l32.22-15.162h95.163"/>
    </g>
</svg>
